<svg xmlns="http://www.w3.org/2000/svg" viewBox="0 0 1200 460" width="1200" height="460" role="img" aria-label="KumaBox: a disposable computer for every agent task">
<title>KumaBox: a disposable computer for every agent task</title>
<defs>
  <pattern id="iso" width="40" height="23.094" patternUnits="userSpaceOnUse">
    <path d="M0 0 L40 23.094 M40 0 L0 23.094" stroke="#ffffff" stroke-opacity="0.028" stroke-width="1"/>
  </pattern>
  <radialGradient id="glow" cx="50%" cy="50%" r="50%">
    <stop offset="0%" stop-color="#F5B83D" stop-opacity="0.35"/>
    <stop offset="100%" stop-color="#F5B83D" stop-opacity="0"/>
  </radialGradient>
  <radialGradient id="vignette" cx="30%" cy="20%" r="90%">
    <stop offset="0%" stop-color="#22324A"/>
    <stop offset="100%" stop-color="#172233"/>
  </radialGradient>
  <marker id="arr" viewBox="0 0 10 10" refX="8" refY="5" markerWidth="7" markerHeight="7" orient="auto-start-reverse">
    <path d="M0 0 L10 5 L0 10 z" fill="#6F8FAF"/>
  </marker>
  <marker id="arrH" viewBox="0 0 10 10" refX="8" refY="5" markerWidth="7" markerHeight="7" orient="auto-start-reverse">
    <path d="M0 0 L10 5 L0 10 z" fill="#F5B83D"/>
  </marker>
</defs>
<style>
  text { font-family: 'Inter','Segoe UI','SF Pro Text',-apple-system,'Helvetica Neue',Arial,sans-serif; }
  .mono { font-family: 'JetBrains Mono','SFMono-Regular',Menlo,Consolas,'DejaVu Sans Mono',monospace; }
  .flow { stroke-dasharray: 6 8; animation: flow 1.6s linear infinite; }
  @keyframes flow { to { stroke-dashoffset: -28; } }
  
  .clone { opacity: 0; animation: pop 6s ease-out infinite; }
  .c1 { animation-delay: 0.3s; } .c2 { animation-delay: 0.7s; } .c3 { animation-delay: 1.1s; } .c4 { animation-delay: 1.5s; }
  @keyframes pop { 0% {opacity:0; transform: translateX(-18px);} 12% {opacity:1; transform: translateX(0);} 86% {opacity:1;} 100% {opacity:0;} }
  .pulse { animation: pulse 3s ease-in-out infinite; transform-origin: 820px 205px; }
  @keyframes pulse { 0%,100% { opacity: .55; } 50% { opacity: 1; } }
  @media (prefers-reduced-motion: reduce) { .clone { opacity: 1; } }

  @media (prefers-reduced-motion: reduce) { * { animation: none !important; } }
</style>
<rect x="0" y="0" width="1200" height="460" rx="20" fill="url(#vignette)"/>
<rect x="0" y="0" width="1200" height="460" rx="20" fill="url(#iso)"/>
<rect x="0.5" y="0.5" width="1199" height="459" rx="20" fill="none" stroke="#34485F"/>
<g transform="translate(165,188) scale(1.05)">
<polygon points="0,-50 86.6,0 0,50 -86.6,0" fill="#0F1826"/>
<circle cx="-42" cy="-78" r="17" fill="#fff" stroke="#0F1826" stroke-width="4"/>
<circle cx="42" cy="-78" r="17" fill="#fff" stroke="#0F1826" stroke-width="4"/>
<circle cx="-42" cy="-78" r="7" fill="#0F1826"/><circle cx="42" cy="-78" r="7" fill="#0F1826"/>
<ellipse cx="0" cy="-40" rx="58" ry="54" fill="#fff" stroke="#0F1826" stroke-width="4"/>
<ellipse cx="-20" cy="-48" rx="5" ry="7" fill="#0F1826"/><ellipse cx="20" cy="-48" rx="5" ry="7" fill="#0F1826"/>
<ellipse cx="0" cy="-32" rx="9" ry="6" fill="#0F1826"/>
<path d="M-9 -20 Q-4 -15 0 -20 Q4 -15 9 -20" stroke="#0F1826" stroke-width="3" fill="none" stroke-linecap="round"/>
<polygon points="-86.6,0 0,50 0,150 -86.6,100" fill="#1F2D40" stroke="#0F1826" stroke-width="4" stroke-linejoin="round"/>
<polygon points="86.6,0 0,50 0,150 86.6,100" fill="#4E6E8E" stroke="#0F1826" stroke-width="4" stroke-linejoin="round"/>
<ellipse cx="-44" cy="16" rx="19" ry="13" fill="#fff" stroke="#0F1826" stroke-width="4" transform="rotate(22 -44 16)"/>
<ellipse cx="44" cy="16" rx="19" ry="13" fill="#fff" stroke="#0F1826" stroke-width="4" transform="rotate(-22 44 16)"/>
<path d="M-66 52 L-54 64 L-66 72" stroke="#F5B83D" stroke-width="5" fill="none" stroke-linecap="round" stroke-linejoin="round"/>
<path d="M-46 80 L-30 88" stroke="#F5B83D" stroke-width="5" stroke-linecap="round"/>
<g transform="translate(44,78) scale(0.9)" stroke="#fff" stroke-width="3.5" fill="none" stroke-linejoin="round"><polygon points="0,-16 17,-7 0,2 -17,-7"/><polyline points="-17,-7 -17,12 0,21 17,12 17,-7"/><line x1="0" y1="2" x2="0" y2="21"/></g>
</g>
<text x="330" y="118" font-size="72" font-weight="800" letter-spacing="-1.5"><tspan fill="#E8EEF5">Kuma</tspan><tspan fill="#6F8FAF">Box</tspan></text>
<text x="330" y="178" font-size="30" fill="#E8EEF5" font-weight="600" text-anchor="start" >A disposable computer</text>
<text x="330" y="216" font-size="30" fill="#E8EEF5" font-weight="600" text-anchor="start" >for every agent task.</text>
<text x="330" y="262" font-size="18" fill="#98AABF" font-weight="400" text-anchor="start" >Hardware-isolated microVMs on KVM,</text>
<text x="330" y="288" font-size="18" fill="#98AABF" font-weight="400" text-anchor="start" >driven by one daemonless CLI.</text>
<circle cx="820" cy="215" r="95" fill="url(#glow)" class="pulse"/>
<g ><polygon points="781.896,190 820,212.0 820,262.6 781.896,240.6" fill="#1F2D40" stroke="#0F1826" stroke-width="2" stroke-linejoin="round"/><polygon points="858.104,190 820,212.0 820,262.6 858.104,240.6" fill="#4E6E8E" stroke="#0F1826" stroke-width="2" stroke-linejoin="round"/><polygon points="820,168.0 858.104,190 820,212.0 781.896,190" fill="#F5B83D" stroke="#0F1826" stroke-width="2" stroke-linejoin="round"/></g>
<text x="820" y="300" font-size="14" fill="#F5B83D" font-weight="600" text-anchor="middle" class="mono" >snapshot: base</text>
<path d="M864 210 C 960 210, 920 104, 1026 104" stroke="#6F8FAF" stroke-width="1.6" fill="none" stroke-linecap="round" stroke-linejoin="round" class="flow"/>
<g class="clone c1"><g ><polygon points="1039.216,90 1060,102.0 1060,129.6 1039.216,117.6" fill="#1F2D40" stroke="#0F1826" stroke-width="2" stroke-linejoin="round"/><polygon points="1080.784,90 1060,102.0 1060,129.6 1080.784,117.6" fill="#4E6E8E" stroke="#0F1826" stroke-width="2" stroke-linejoin="round"/><polygon points="1060,78.0 1080.784,90 1060,102.0 1039.216,90" fill="#6F8FAF" stroke="#0F1826" stroke-width="2" stroke-linejoin="round"/></g>
<text x="1094" y="108" font-size="14" fill="#E8EEF5" font-weight="500" text-anchor="start" class="mono" >fresh-1</text>
</g>
<path d="M864 210 C 960 210, 920 182, 1026 182" stroke="#6F8FAF" stroke-width="1.6" fill="none" stroke-linecap="round" stroke-linejoin="round" class="flow"/>
<g class="clone c2"><g ><polygon points="1039.216,168 1060,180.0 1060,207.6 1039.216,195.6" fill="#1F2D40" stroke="#0F1826" stroke-width="2" stroke-linejoin="round"/><polygon points="1080.784,168 1060,180.0 1060,207.6 1080.784,195.6" fill="#4E6E8E" stroke="#0F1826" stroke-width="2" stroke-linejoin="round"/><polygon points="1060,156.0 1080.784,168 1060,180.0 1039.216,168" fill="#6F8FAF" stroke="#0F1826" stroke-width="2" stroke-linejoin="round"/></g>
<text x="1094" y="186" font-size="14" fill="#E8EEF5" font-weight="500" text-anchor="start" class="mono" >fresh-2</text>
</g>
<path d="M864 210 C 960 210, 920 260, 1026 260" stroke="#6F8FAF" stroke-width="1.6" fill="none" stroke-linecap="round" stroke-linejoin="round" class="flow"/>
<g class="clone c3"><g ><polygon points="1039.216,246 1060,258.0 1060,285.6 1039.216,273.6" fill="#1F2D40" stroke="#0F1826" stroke-width="2" stroke-linejoin="round"/><polygon points="1080.784,246 1060,258.0 1060,285.6 1080.784,273.6" fill="#4E6E8E" stroke="#0F1826" stroke-width="2" stroke-linejoin="round"/><polygon points="1060,234.0 1080.784,246 1060,258.0 1039.216,246" fill="#6F8FAF" stroke="#0F1826" stroke-width="2" stroke-linejoin="round"/></g>
<text x="1094" y="264" font-size="14" fill="#E8EEF5" font-weight="500" text-anchor="start" class="mono" >fresh-3</text>
</g>
<path d="M864 210 C 960 210, 920 338, 1026 338" stroke="#6F8FAF" stroke-width="1.6" fill="none" stroke-linecap="round" stroke-linejoin="round" class="flow"/>
<g class="clone c4"><g ><polygon points="1039.216,324 1060,336.0 1060,363.6 1039.216,351.6" fill="#1F2D40" stroke="#0F1826" stroke-width="2" stroke-linejoin="round"/><polygon points="1080.784,324 1060,336.0 1060,363.6 1080.784,351.6" fill="#4E6E8E" stroke="#0F1826" stroke-width="2" stroke-linejoin="round"/><polygon points="1060,312.0 1080.784,324 1060,336.0 1039.216,324" fill="#6F8FAF" stroke="#0F1826" stroke-width="2" stroke-linejoin="round"/></g>
<text x="1094" y="342" font-size="14" fill="#E8EEF5" font-weight="500" text-anchor="start" class="mono" >fresh-4</text>
</g>
<text x="940" y="410" font-size="14" fill="#98AABF" font-weight="400" text-anchor="middle" class="mono" >$ kumabox clone base --name fresh-N</text>
<rect x="60" y="384" width="182" height="28" rx="14.0" fill="#243449" stroke="#34485F" stroke-width="1.2" />
<text x="151.0" y="402.68" font-size="13" fill="#E8EEF5" font-weight="400" text-anchor="middle" >Own kernel per sandbox</text>
<rect x="252" y="384" width="175" height="28" rx="14.0" fill="#243449" stroke="#34485F" stroke-width="1.2" />
<text x="339.5" y="402.68" font-size="13" fill="#E8EEF5" font-weight="400" text-anchor="middle" >Zero resident daemons</text>
<rect x="437" y="384" width="96" height="28" rx="14.0" fill="#243449" stroke="#34485F" stroke-width="1.2" />
<text x="485.0" y="402.68" font-size="13" fill="#E8EEF5" font-weight="400" text-anchor="middle" >OCI images</text>
<rect x="543" y="384" width="146" height="28" rx="14.0" fill="#243449" stroke="#34485F" stroke-width="1.2" />
<text x="616.0" y="402.68" font-size="13" fill="#E8EEF5" font-weight="400" text-anchor="middle" >Running snapshots</text>
</svg>
